<?xml version="1.0" encoding="UTF-8"?>
<svg width="16px" height="12px" viewBox="0 0 16 12" version="1.1" xmlns="http://www.w3.org/2000/svg" xmlns:xlink="http://www.w3.org/1999/xlink">
    <!-- Generator: Sketch 52.5 (67469) - http://www.bohemiancoding.com/sketch -->
    <title>ic/20/next</title>
    <desc>Created with Sketch.</desc>
    <defs>
        <path d="M17.707,9.293 L12.707,4.293 C12.316,3.902 11.684,3.902 11.293,4.293 C10.902,4.684 10.902,5.316 11.293,5.707 L14.586,9 L3,9 C2.447,9 2,9.448 2,10 C2,10.552 2.447,11 3,11 L14.586,11 L11.293,14.293 C10.902,14.684 10.902,15.316 11.293,15.707 C11.488,15.902 11.744,16 12,16 C12.256,16 12.512,15.902 12.707,15.707 L17.707,10.707 C18.098,10.316 18.098,9.684 17.707,9.293" id="path-1"></path>
    </defs>
    <g id="Page-1" stroke="none" stroke-width="1" fill="none" fill-rule="evenodd">
        <g id="icons" transform="translate(-605.000000, -360.000000)">
            <g id="Polaris-icon/Minor/Mono/Arrow-Right" transform="translate(603.000000, 356.000000)">
                <mask id="mask-2" fill="white">
                    <use xlink:href="#path-1"></use>
                </mask>
                <use id="Icon" fill="#31373D" fill-rule="evenodd" xlink:href="#path-1"></use>
                <g id="Color/InkLighter" mask="url(#mask-2)"></g>
            </g>
        </g>
    </g>
</svg>
