<?xml version="1.0" encoding="UTF-8"?>
<svg width="16px" height="12px" viewBox="0 0 16 12" version="1.1" xmlns="http://www.w3.org/2000/svg" xmlns:xlink="http://www.w3.org/1999/xlink">
    <!-- Generator: Sketch 52.5 (67469) - http://www.bohemiancoding.com/sketch -->
    <title>ic/20/previous</title>
    <desc>Created with Sketch.</desc>
    <defs>
        <path d="M17,9 L5.414,9 L8.707,5.707 C9.098,5.316 9.098,4.684 8.707,4.293 C8.316,3.902 7.684,3.902 7.293,4.293 L2.293,9.293 C1.902,9.684 1.902,10.316 2.293,10.707 L7.293,15.707 C7.488,15.902 7.744,16 8,16 C8.256,16 8.512,15.902 8.707,15.707 C9.098,15.316 9.098,14.684 8.707,14.293 L5.414,11 L17,11 C17.553,11 18,10.552 18,10 C18,9.448 17.553,9 17,9" id="path-1"></path>
    </defs>
    <g id="Page-1" stroke="none" stroke-width="1" fill="none" fill-rule="evenodd">
        <g id="icons" transform="translate(-605.000000, -320.000000)">
            <g id="Polaris-icon/Minor/Mono/Arrow-Left" transform="translate(603.000000, 316.000000)">
                <mask id="mask-2" fill="white">
                    <use xlink:href="#path-1"></use>
                </mask>
                <use id="Icon" fill="#31373D" fill-rule="evenodd" xlink:href="#path-1"></use>
                <g id="Color/InkLighter" mask="url(#mask-2)"></g>
            </g>
        </g>
    </g>
</svg>
